<svg width="172" height="100" xmlns="http://www.w3.org/2000/svg" xmlns:xlink="http://www.w3.org/1999/xlink" xml:space="preserve" overflow="hidden"><g transform="translate(-304 -170)"><path d="M163.274 72.9414C167.504 72.9414 170.148 72.9414 171.204 72.9414 171.632 72.9414 171.968 72.5759 171.93 72.1486 171.645 68.9451 170.933 60.931 169.791 48.1089 170.487 48.1089 170.922 48.1089 171.094 48.1089 171.594 48.1089 172 47.7058 172 47.2059 172 46.1444 172 43.946 172 42.9059 172 42.3523 171.551 41.9035 170.995 41.9035 170.815 41.9035 170.366 41.9035 169.646 41.9035 168.125 32.5268 167.173 26.6681 166.794 24.3246 166.698 23.7226 166.176 23.2791 165.566 23.2791 162.553 23.2791 154.577 23.2791 151.564 23.2791 150.976 23.2791 150.5 23.7548 150.5 24.3434 150.5 25.0583 150.5 26.8481 150.5 29.7103L145.125 29.67 145.125 24.0021 139.75 15.5203 134.375 15.5203 139.75 10.6667C148.011 8.7075 153.177 7.48469 155.241 6.99556 157.447 6.4715 159.707 6.20813 161.976 6.20813 163.443 6.20813 166.112 6.20813 167.998 6.20813 168.858 6.20813 169.705 5.97969 170.452 5.54969 170.656 5.43144 171.175 5.13313 172 4.65475 172 2.85681 172 1.73344 172 1.28194 172 0.575125 171.425 0 170.718 0 162.911 0 140.637 0 132.797 0 132.185 0 131.688 0.497188 131.688 1.10994 131.688 1.16906 131.688 1.31688 131.688 1.55069L51.0625 1.55069C24.3219 7.77763 7.60563 11.6664 0.921813 13.2225 0.381625 13.3488 0 13.8299 0 14.3835 0 15.2704 0 16.7861 0 17.6246 0 18.3556 0.400438 19.0302 1.04275 19.3796 7.35569 22.8088 23.1313 31.3819 48.375 45.0989L48.375 50.8771 86.7525 68.284C87.6824 71.4391 88.2629 73.4091 88.4967 74.1965 88.6096 74.5835 88.9616 74.8496 89.3621 74.8549 89.7652 74.863 90.3538 74.8738 90.7703 74.8791 91.1036 74.8845 91.375 74.6184 91.375 74.2852 91.375 73.6913 91.375 72.2104 91.375 69.8374L94.0625 74.4921C99.4348 74.4921 102.792 74.4921 104.133 74.4921 104.509 74.4921 104.813 74.1884 104.813 73.8149 104.813 72.6619 104.813 69.7863 104.813 65.1799L107.5 65.1799C107.5 67.2601 107.5 68.5581 107.5 69.0795 107.5 69.4988 107.839 69.8374 108.258 69.8374 109.182 69.8374 111.01 69.8374 111.889 69.8374 112.477 69.8374 113.001 69.4611 113.189 68.8994 113.507 67.9561 114.297 65.5965 115.563 61.8232L160.221 66.7333 163.228 72.9414" fill="#0F3C50" transform="matrix(1 0 0 1.00566 304 170)"/><path d="M86 74.4921C86 88.1984 75.6236 99.3246 62.8418 99.3246 50.0628 99.3246 39.6863 88.1984 39.6863 74.4921 39.6863 60.7886 50.0628 49.6623 62.8418 49.6623 75.6236 49.6623 86 60.7886 86 74.4921Z" fill="#0F3C50" transform="matrix(1 0 0 1.00566 304 170)"/><path d="M160.395 74.5486C160.395 88.2844 149.989 99.4375 137.17 99.4375 124.353 99.4375 113.947 88.2844 113.947 74.5486 113.947 60.8128 124.353 49.6623 137.17 49.6623 149.989 49.6623 160.395 60.8128 160.395 74.5486Z" fill="#0F3C50" transform="matrix(1 0 0 1.00566 304 170)"/></g></svg>