<svg width="182" height="100" xmlns="http://www.w3.org/2000/svg" xmlns:xlink="http://www.w3.org/1999/xlink" xml:space="preserve" overflow="hidden"><defs><clipPath id="clip0"><rect x="566" y="315" width="182" height="100"/></clipPath></defs><g clip-path="url(#clip0)" transform="translate(-566 -315)"><path d="M74.8548 74.0094C74.8548 88.2465 63.6736 99.8064 49.9032 99.8064 36.1329 99.8064 24.9516 88.2465 24.9516 74.0094 24.9516 59.7694 36.1329 48.2094 49.9032 48.2094 63.6736 48.2094 74.8548 59.7694 74.8548 74.0094Z" fill="#0F3C50" transform="matrix(-1 0 0 1.00194 748 315)"/><path d="M154.603 74.0094C154.603 88.2465 143.422 99.8064 129.652 99.8064 115.878 99.8064 104.7 88.2465 104.7 74.0094 104.7 59.7694 115.878 48.2094 129.652 48.2094 143.422 48.2094 154.603 59.7694 154.603 74.0094Z" fill="#0F3C50" transform="matrix(-1 0 0 1.00194 748 315)"/><path d="M10.2742 77.6846 4.40323 77.6846 4.40323 75.6738 0 75.6738 0 72.2335 0 65.3556C0.504903 65.3556 0.821935 65.3556 0.948161 65.3556 1.23584 65.3556 1.46774 65.5875 1.46774 65.8723 1.46774 67.1463 1.46774 70.4839 1.46774 71.7667 1.46774 72.025 1.67616 72.2335 1.93448 72.2335 3.04703 72.2335 5.82694 72.2335 10.2742 72.2335L10.2742 46.4364 5.87097 46.4364 6.12048 72.2335 4.40323 72.2335 4.40323 42.996 5.87097 42.996 5.87097 37.8354 2.93548 37.5478 2.93548 36.1182 4.40323 36.1182 4.40323 22.3566 13.2097 20.6394 13.2097 22.3566 6.13223 23.7539 5.87097 30.9576 13.2097 30.9576 13.2097 17.199 14.6774 17.199 15.0502 30.9576 21.2235 27.5172 24.9516 15.0003 24.7197 13.4651 27.6317 12.0384 46.3865 12.0384 52.8387 27.5172 57.2419 27.5172 48.4355 6.88077C48.4355 6.51677 48.4355 6.28781 48.4355 6.19681 48.4355 5.62439 48.8993 5.16058 49.4746 5.16058 52.8563 5.16058 61.3193 5.16058 74.8548 5.16058L74.8548 3.44039 73.3871 3.44039 73.3871 1.72019 76.3226 1.72019C76.3226 1.18887 76.3226 0.860097 76.3226 0.725065 76.3226 0.325839 76.6484 0 77.0476 0 81.307 0 93.4364 0 97.7164 0 98.0598 0 98.3387 0.278871 98.3387 0.622322 98.3387 0.998065 98.3387 1.93742 98.3387 3.44039L96.871 5.16058 130.629 5.16058 130.629 3.44039 129.161 3.44039 129.161 1.72019 132.097 1.72019C132.097 1.30042 132.097 1.03623 132.097 0.933484 132.097 0.419774 132.517 0.00587097 133.03 0.0117419 137.246 0.0557742 149.128 0.187871 153.388 0.234839 153.79 0.24071 154.113 0.566548 154.113 0.96871 154.113 1.31216 154.113 2.17226 154.113 3.549L152.645 5.16058C160.477 5.16058 165.373 5.16058 167.331 5.16058 168.247 5.16058 169.11 5.59797 169.647 6.34064 169.862 6.63713 169.818 6.57548 170.073 6.92774 170.496 7.5119 170.728 8.21055 170.739 8.92974 170.745 9.5051 170.763 10.9376 170.795 13.2302 172.874 14.1637 174.174 14.7479 174.697 14.9827 175.275 15.241 175.483 15.9602 175.131 16.4915 175.037 16.6325 175.034 16.6354 174.843 16.926 174.729 17.0963 174.538 17.199 174.333 17.199 173.986 17.199 173.117 17.199 171.726 17.199L171.726 18.9192 173.194 18.9192 173.194 20.6394 171.726 20.6394 171.726 27.5172C172.46 27.5172 172.921 27.5172 173.105 27.5172 173.966 27.5172 174.661 28.2159 174.661 29.073 174.661 29.4517 174.661 28.985 174.661 29.349 174.661 30.2384 173.942 30.9576 173.056 30.9576 172.877 30.9576 172.433 30.9576 171.726 30.9576L171.726 34.398 177.597 34.398 177.597 48.1566 179.798 53.8514 182 53.7869 182 55.0344 179.065 55.0344 176.361 48.1566 168.79 48.412 168.79 46.4364 176.129 46.4364 176.129 36.1182 168.79 36.1182 168.79 58.4748 167.323 58.4748 167.323 39.5556 164.968 39.5556C164.851 51.9639 164.778 59.7195 164.745 62.8223 164.739 63.4299 164.302 63.9495 163.7 64.0581 162.72 64.2343 160.691 64.5953 159.682 64.7773 159.221 64.8595 158.795 64.5043 158.795 64.0346 158.795 63.2597 158.795 61.3164 158.795 58.2077 156.491 56.9513 155.049 56.1675 154.474 55.8535 153.535 55.3427 152.912 54.3974 152.81 53.3319 152.789 53.1 152.733 52.5217 152.645 51.597L149.011 51.597 148.967 59.3349 104.861 75.6738 102.742 75.6738 100.76 76.1494 100.552 77.8021 100.435 80.2825C100.203 80.6465 100.056 80.8755 100 80.9665 99.4718 81.7884 98.5618 82.2875 97.5843 82.2875 97.2232 82.2875 97.8984 82.2875 97.5843 82.2875 96.4365 82.2875 95.3445 81.7914 94.593 80.9225 94.4609 80.7698 94.8337 81.2013 94.5989 80.9284 94.1703 80.4352 93.9355 79.8041 93.9355 79.1495 93.9355 78.8001 93.9355 78.9997 93.9355 78.7091 93.9355 77.8344 94.0177 76.9596 94.1791 76.1024 94.1909 76.0437 94.2173 75.9028 94.2613 75.6738 94.0353 72.9937 93.8944 71.3205 93.8357 70.6512 93.8034 70.252 93.2427 70.1904 93.1253 70.5749 92.8405 71.482 92.1331 73.757 91 77.394L77.7903 77.394 76.3226 68.7931 68.2001 51.597 65.3028 51.597 65.3145 55.6949 68.0533 61.9152 74.8548 61.6129 76.3226 68.7931 25.3009 77.394 24.9516 79.1142 24.9516 89.4324 20.5484 89.4324 20.5484 82.5517 17.6129 82.5517 15.7489 78.1573 15.3731 80.0183 14.6774 80.8344 10.2742 80.8344 10.2742 77.6846Z" fill="#0F3C50" transform="matrix(-1 0 0 1.00194 748 315)"/></g></svg>