<svg width="178" height="115" xmlns="http://www.w3.org/2000/svg" xmlns:xlink="http://www.w3.org/1999/xlink" xml:space="preserve" overflow="hidden"><defs><clipPath id="clip0"><rect x="1062" y="430" width="178" height="115"/></clipPath></defs><g clip-path="url(#clip0)" transform="translate(-1062 -430)"><path d="M36.9637 111.195 32.775 111.195 30.9203 110.01 29.9815 106.9 31.3797 104.822 27.1909 101.179 25.9449 102.089 17.4641 89.2211 19.3876 83.3901 19.3876 24.676 27.1909 27.8225 29.9815 27.0474C49.9836 31.15 62.4837 33.7166 67.4821 34.7444 68.9836 35.0516 70.4449 35.5282 71.8402 36.1627 74.4959 37.3685 81.0532 40.3515 83.8811 41.6376 84.6964 42.0109 85.4371 42.5305 86.063 43.1736 86.7176 43.8454 87.8975 45.0627 88.5923 45.7776 89.0833 46.28 89.6144 46.7394 90.1828 47.1528 91.0929 47.8131 93.3696 49.4668 97.01 52.1109L100.877 58.1342 100.492 65.5155 94.4003 51.465 93.3208 51.086 92.5657 48.9012 90.0278 47.17 91.6757 51.7061 91.2795 52.7253 99.1029 71.579 99.1029 86.1491 102.594 87.9722 108.181 88.8823 108.181 92.5255C98.5976 92.5255 92.6059 92.5255 90.2115 92.5255 88.2765 92.5255 86.3932 93.1428 84.8342 94.2855 84.1969 94.7534 84.9462 94.2051 84.3749 94.6242 82.6092 95.919 81.3374 97.7737 80.7661 99.8867 80.5249 100.782 80.8407 99.6082 80.6397 100.355 79.9306 102.97 80.0053 105.738 80.8522 108.313 81.0101 108.798 80.6082 107.572 80.8723 108.376 81.3776 109.912 82.3508 111.256 83.6571 112.212 84.372 112.737 84.1624 112.585 84.7912 113.047 86.3788 114.21 88.2966 114.839 90.2632 114.839 104.46 114.839 144.275 114.839 158.532 114.839 160.289 114.839 161.994 114.25 163.378 113.168 163.929 112.737 163.034 113.438 163.482 113.085 165.207 111.738 166.473 109.892 167.113 107.799 167.352 107.027 167.105 107.825 167.349 107.027 167.966 105.014 167.934 102.861 167.26 100.871 167.033 100.203 167.268 100.894 167.01 100.134 166.43 98.4225 165.477 96.8636 164.214 95.5688 163.619 94.9601 163.883 95.2329 163.324 94.6558 161.994 93.295 160.168 92.5255 158.265 92.5255 154.846 92.5255 146.296 92.5255 132.619 92.5255L132.587 87.2774C155.294 87.2774 169.488 87.2774 175.163 87.2774 176.042 87.2774 176.843 86.7721 177.222 85.9826 177.377 85.6582 177.107 86.2209 177.233 85.9568 177.739 84.906 178 83.7576 178 82.5949 178 79.5717 178 72.0527 178 68.975 178 68.0104 177.653 67.0773 177.021 66.3481 176.745 66.0294 176.676 65.949 176.346 65.5672 175.898 65.0475 175.244 64.7489 174.558 64.7489 174.271 64.7489 173.559 64.7489 172.413 64.7489L171.715 60.1927 169.623 57.4624 143.79 57.4624 143.79 62.0158 141.694 62.0158C141.694 60.3104 141.694 59.2482 141.694 58.8204 141.694 58.0711 141.085 57.4624 140.336 57.4624 139.77 57.4624 139.024 57.4624 138.355 57.4624 137.818 57.4624 137.313 57.7122 136.988 58.1371 136.81 58.3668 137.135 57.9419 137.043 58.0625 136.492 58.7831 136.492 59.785 137.043 60.5028 137.106 60.5832 137.258 60.7841 137.505 61.1057L137.505 64.7489 131.918 64.7489C131.869 55.9207 131.838 50.4027 131.823 48.1949 131.82 47.7815 131.485 47.4514 131.071 47.4542 128.223 47.4801 121.106 47.5404 109.717 47.6408 105.092 39.7543 102.198 34.8248 101.041 32.8525 100.217 31.4457 99.2465 30.1337 98.1412 28.9365 97.3574 28.0838 96.8664 27.5527 96.1315 26.7545 94.8654 25.3794 93.3553 24.2539 91.6757 23.4357 90.6967 22.9563 88.2564 21.7648 84.349 19.8585 82.8159 18.1158 81.857 17.0277 81.4723 16.5942 80.6369 15.6439 79.4598 15.0611 78.1994 14.9692 77.3554 14.9089 75.2481 14.7568 71.8747 14.5099L72.4087 15.5664C75.4174 15.8678 77.2979 16.0545 78.0501 16.1291 78.8683 16.2095 79.5631 16.7693 79.8186 17.5531 79.8761 17.7311 80.0225 18.1761 80.2522 18.8852L73.9705 18.1101C72.7101 15.9367 71.9206 14.5788 71.6077 14.0333 71.3292 13.5538 70.8928 13.1835 70.3732 12.9825 70.1148 12.8849 70.3445 12.971 70.1377 12.8935 69.4372 12.6236 68.6994 12.4715 67.9501 12.4428 67.6199 12.4313 67.6256 12.4313 67.2639 12.4169 66.6524 12.394 66.0667 12.6696 65.6964 13.1548 65.682 13.172 65.6475 13.2179 65.5901 13.2897L35.8211 6.33048 34.8708 6.91616 14.4984 1.44984 14.0333 3.41358 34.4947 8.92871 34.644 10.1029 64.169 17.3895 22.7811 14.6563C22.6003 13.9673 22.4883 13.5366 22.4424 13.3672 22.3591 13.0543 22.0777 12.8361 21.7533 12.8361 21.5839 12.8361 21.6528 12.8361 21.4921 12.8361 21.1504 12.8361 20.8576 13.0744 20.7887 13.4103 20.7542 13.5682 20.6738 13.9701 20.5418 14.6132L17.4153 14.6563 13.7376 4.63948 14.6218 1.18571C13.4304 0.663194 12.6868 0.338774 12.3911 0.20671 11.6045-0.137806 10.6972-0.0430645 9.99958 0.456484 9.33926 0.930194 8.5239 1.513 7.87219 1.9781 7.10565 2.52932 6.48265 3.25855 6.06348 4.10548 5.03855 6.16684 2.46903 11.3375 1.40965 13.4677 1.09958 14.0936 0.930194 14.7797 0.912968 15.4803 0.881387 17.0708 0.795258 21.0471 0.657452 27.4063 0.499548 27.613 0.401935 27.7422 0.361742 27.7938 0.103355 28.1326-0.0229677 28.5518 0.00287097 28.9795 0.0200968 29.2121 0.0287097 29.3671 0.0488065 29.6313 0.0689032 29.9643 0.175129 30.2887 0.353129 30.5701 0.396194 30.6361 0.496677 30.794 0.657452 31.0495L1.65081 58.8721C1.53597 59.2941 1.46419 59.5554 1.43548 59.6616 1.29768 60.1697 1.27471 60.7037 1.36945 61.2234 1.39816 61.3813 1.36371 61.1889 1.39816 61.3784 1.47281 61.789 1.69961 62.1536 2.03552 62.3976 2.13026 62.4694 2.36855 62.6445 2.75326 62.9259L3.01452 74.1944 4.63661 74.1944 4.50168 62.9259C4.65384 62.7708 4.74858 62.6761 4.7859 62.6359 5.17923 62.234 5.42039 61.7086 5.46632 61.1487 5.48355 60.9564 5.46345 61.1889 5.48068 60.9822 5.52374 60.4683 5.42039 59.9515 5.18497 59.4893 5.13903 59.4032 5.02706 59.1821 4.84619 58.8319L3.85858 32.8726 4.84619 34.331 8.50955 55.6394 12.661 74.4528 5.93429 75.6758C5.8539 75.3399 5.8051 75.1304 5.785 75.0471 5.64432 74.4643 5.13903 74.0423 4.54187 74.0078 4.04519 73.982 4.01935 73.9791 3.63752 73.959 2.66139 73.9045 1.73406 74.3868 1.22016 75.2194 1.16274 75.3112 1.19719 75.2538 0.984742 75.6012 0.953161 75.65 0.935935 75.7074 0.935935 75.7648 0.935935 76.1639 0.935935 76.2644 0.935935 76.4108 0.935935 77.1917 1.4929 77.8578 2.26232 78.0013 2.36568 78.0185 2.62981 78.0674 3.05184 78.1449L5.93429 86.6056C5.79361 87.0994 5.70748 87.4066 5.67016 87.5301 5.47781 88.2105 5.68165 88.9397 6.19842 89.4192 6.31613 89.5311 6.61184 89.8067 7.08842 90.2489L7.08842 93.3007C5.04142 95.3678 3.76384 96.6597 3.25281 97.1765 2.1159 98.3249 1.33213 99.7719 0.987613 101.351 0.82971 102.083 0.841194 102.02 0.674677 102.789 0.358871 104.239 0.447871 105.746 0.933065 107.15 1.157 107.799 1.246 108.055 1.50726 108.815 1.86326 109.846 2.52358 110.745 3.39923 111.394 4.02223 111.856 4.00213 111.841 4.48732 112.2 5.81945 113.188 7.36116 113.848 8.99187 114.132 9.83881 114.279 10.8609 114.457 11.949 114.643 12.793 114.793 13.6572 114.793 14.5041 114.652 15.0783 114.554 16.5138 114.313 18.8106 113.929L27.1909 114.839 35.5684 113.929 36.9637 111.195Z" fill="#0F3C50" transform="matrix(-1 0 0 1.0014 1240 430)"/></g></svg>