<svg width="202" height="202" xmlns="http://www.w3.org/2000/svg" xmlns:xlink="http://www.w3.org/1999/xlink" xml:space="preserve" overflow="hidden"><g transform="translate(-438 -195)"><path d="M630.742 284.974 618.622 248.614C616.313 241.741 609.881 237.103 602.63 237.083L597.917 237.083 597.917 228.667C597.917 224.038 594.129 220.25 589.5 220.25L581.083 220.25C576.454 220.25 572.667 224.038 572.667 228.667L572.667 237.083 555.833 237.083C546.575 237.083 539 244.658 539 253.917L539 287.583 446.417 287.583 446.417 329.667C446.417 338.925 453.992 346.5 463.25 346.5L471.667 346.5C471.667 360.472 482.945 371.75 496.917 371.75 510.888 371.75 522.167 360.472 522.167 346.5L555.833 346.5C555.833 360.472 567.112 371.75 581.083 371.75 595.055 371.75 606.333 360.472 606.333 346.5L631.583 346.5 631.583 290.277C631.583 288.509 631.331 286.742 630.742 284.974M496.917 354.917C492.288 354.917 488.5 351.129 488.5 346.5 488.5 341.871 492.288 338.083 496.917 338.083 501.546 338.083 505.333 341.871 505.333 346.5 505.333 351.129 501.546 354.917 496.917 354.917M581.083 354.917C576.454 354.917 572.667 351.129 572.667 346.5 572.667 341.871 576.454 338.083 581.083 338.083 585.713 338.083 589.5 341.871 589.5 346.5 589.5 351.129 585.713 354.917 581.083 354.917M555.833 287.583 555.833 253.917 602.63 253.917 613.824 287.583Z" fill="#0F3C50"/><path d="M530.583 266.542 522.167 266.542 522.167 249.708 530.583 249.708 530.583 237.083 446.417 237.083 446.417 249.708 454.833 249.708 454.833 266.542 446.417 266.542 446.417 279.167 530.583 279.167ZM482.188 266.542 467.458 266.542 467.458 249.708 482.188 249.708ZM509.542 266.542 494.812 266.542 494.812 249.708 509.542 249.708Z" fill="#0F3C50"/></g></svg>