<svg width="202" height="202" xmlns="http://www.w3.org/2000/svg" xmlns:xlink="http://www.w3.org/1999/xlink" xml:space="preserve" overflow="hidden"><g transform="translate(-721 -474)"><path d="M830.417 507.667C835.065 507.667 838.833 511.435 838.833 516.083L872.5 516.083C875.067 516.083 877.494 517.255 879.09 519.265L879.713 520.174 904.963 562.257 905.426 563.124 905.763 564.025 906.007 564.942 906.141 565.868 906.167 566.583 906.167 617.083C906.167 621.732 902.399 625.5 897.75 625.5L887.894 625.5C883.24 638.65 868.805 645.538 855.655 640.882 848.469 638.339 842.816 632.686 840.273 625.5L803.727 625.5C799.073 638.65 784.639 645.538 771.488 640.882 764.302 638.339 758.65 632.686 756.106 625.5L746.25 625.5C741.602 625.5 737.833 621.732 737.833 617.083L737.833 524.5C737.833 515.203 745.37 507.667 754.667 507.667ZM779.917 608.667C775.268 608.667 771.5 612.435 771.5 617.083 771.5 621.732 775.268 625.5 779.917 625.5 784.565 625.5 788.333 621.732 788.333 617.083 788.333 612.435 784.565 608.667 779.917 608.667M864.083 608.667C859.435 608.667 855.667 612.435 855.667 617.083 855.667 621.732 859.435 625.5 864.083 625.5 868.732 625.5 872.5 621.732 872.5 617.083 872.5 612.435 868.732 608.667 864.083 608.667M867.736 532.917 838.833 532.917 838.833 558.167 882.886 558.167Z" fill="#0F3C50"/></g></svg>