<svg width="219" height="219" xmlns="http://www.w3.org/2000/svg" xmlns:xlink="http://www.w3.org/1999/xlink" xml:space="preserve" overflow="hidden"><g transform="translate(-736 -461)"><path d="M918.5 534 872.875 534 872.875 588.75 754.25 588.75 754.25 616.125 763.375 616.125C763.375 631.244 775.631 643.5 790.75 643.5 805.869 643.5 818.125 631.244 818.125 616.125L872.875 616.125C872.875 631.244 885.131 643.5 900.25 643.5 915.369 643.5 927.625 631.244 927.625 616.125L945.875 616.125 945.875 570.5ZM790.75 629.812C783.191 629.812 777.062 623.684 777.062 616.125 777.062 608.566 783.191 602.438 790.75 602.438 798.309 602.438 804.438 608.566 804.438 616.125 804.438 623.684 798.309 629.812 790.75 629.812M900.25 629.812C892.691 629.812 886.562 623.684 886.562 616.125 886.562 608.566 892.691 602.438 900.25 602.438 907.809 602.438 913.938 608.566 913.938 616.125 913.938 623.684 907.809 629.812 900.25 629.812M891.125 570.5 891.125 547.688 913.938 547.688 931.823 570.5ZM900.25 524.875 863.75 524.875 863.75 579.625 763.375 579.625 750.326 534 745.125 534 745.125 515.75 854.625 515.75 863.75 506.625 900.25 506.625Z" fill="#0F3C50"/></g></svg>