<svg width="160" height="99" xmlns="http://www.w3.org/2000/svg" xmlns:xlink="http://www.w3.org/1999/xlink" xml:space="preserve" overflow="hidden"><defs><clipPath id="clip0"><rect x="108" y="312" width="160" height="99"/></clipPath></defs><g clip-path="url(#clip0)" transform="translate(-108 -312)"><path d="M37.2636 99 33.7837 98.6387C31.8013 98.0447 30.5638 97.6759 30.0688 97.5274 29.8955 97.4754 29.7371 97.3838 29.606 97.2626 28.9748 96.6785 28.3264 96.0795 27.9576 95.738 26.9701 94.8222 26.2201 93.6787 25.7796 92.4066 25.589 91.8646 25.5073 91.627 25.2722 90.9464 24.9827 90.1148 24.8341 89.2411 24.8341 88.3575 24.8341 87.516 24.8341 86.3899 24.8341 85.5657 24.8341 84.6301 25.0643 83.7119 25.5073 82.8877 25.8068 82.3309 25.9677 82.0314 26.2498 81.5042 26.7473 80.5761 27.4057 79.747 28.1952 79.054 29.0144 78.3337 29.3758 78.017 29.9673 77.4947 31.4919 76.1558 33.3284 75.2177 35.3083 74.7698 38.2734 74.0965 44.9584 72.5819 48.1239 71.8641 49.4629 71.5622 50.8266 71.3939 52.1978 71.3617 52.3982 71.3567 52.9031 71.3444 53.71 71.3245L52.178 66.4141 12.4047 66.4141C12.4047 68.5327 12.4047 69.8569 12.4047 70.3865 12.4047 70.9187 11.9666 71.3444 11.437 71.3295 9.6426 71.2775 5.36333 71.1538 3.6036 71.1018 2.88585 71.082 2.22008 70.7206 1.8117 70.1316 1.44292 69.602 1.3563 69.4782 1.08158 69.0797 0.3663 68.0526 0.03465 66.8052 0.141075 65.5578 0.45045 61.9493 1.22512 52.9229 2.46263 38.4838L6.71962 38.4838C6.83595 30.7246 6.9102 25.8736 6.93743 23.9357 6.94733 23.3987 7.38293 22.968 7.92 22.968 15.84 22.968 38.6323 22.968 46.5523 22.968 47.0869 22.968 47.5225 23.4011 47.5225 23.9357 47.5225 24.2204 47.5225 24.9331 47.5225 26.0716L52.178 26.0716 52.178 18.3125 57.5116 18.3125 59.2416 22.968 59.6351 33.8283 64.6074 33.8283 64.6074 18.3125 62.1225 17.1691 62.1225 14.0803 94.4361 14.0803 94.4361 15.6247 89.8103 18.3125 89.4663 22.968C102.081 13.662 109.964 7.84575 113.117 5.51925 115.555 3.71992 118.322 2.41808 121.26 1.683 122.857 1.28453 124.111 0.972675 125.935 0.517275 128.081-0.0198 130.341 0.150975 132.38 0.9999 133.244 1.35877 133.143 1.3167 134.12 1.7226 135.828 2.43292 137.424 3.39075 138.855 4.5639 141.073 6.38303 143.048 8.00415 144.637 9.306 148.139 12.177 151.042 15.7138 153.18 19.7084 153.633 20.5574 154.767 22.6784 156.583 26.0716 157.284 28.0962 157.722 29.3634 157.895 29.8683 158.655 32.0611 158.633 34.4495 157.833 36.6275 157.667 37.0829 157.249 38.2189 156.583 40.0356L144.154 61.7587C147.503 59.1575 149.594 57.5339 150.43 56.8829 151.542 56.0216 152.906 55.5514 154.311 55.5514 155.262 55.5514 156.799 55.5514 157.962 55.5514 158.44 55.5514 158.729 56.081 158.472 56.4845 157.596 57.8482 155.576 61.0013 154.705 62.3626 154.304 62.9863 153.772 63.5135 153.143 63.907 152.339 64.4094 151.866 64.7039 151.307 65.0529 149.871 65.9488 148.653 67.1566 147.743 68.5847 147.532 68.9164 147.005 69.743 146.161 71.0696L146.639 73.7476C146.592 74.4332 146.565 74.8267 146.552 74.9257 146.525 75.1682 144.196 75.6657 144.154 75.9058 143.921 77.2175 145.765 78.2595 145.109 79.5168 144.941 79.8385 144.52 80.6429 143.845 81.9324L149.126 94.3445 154.096 95.8963C154.893 96.8913 155.39 97.5125 155.591 97.7625 155.989 98.26 155.635 99 154.997 99 153.549 99 149.936 99 144.154 99L141.669 97.8887C138.395 97.2328 136.35 96.822 135.531 96.6587 133.036 96.1587 130.712 95.0227 128.787 93.3595 128.514 93.1244 127.836 92.5378 126.752 91.6022 123.705 85.7488 121.8 82.0883 121.037 80.6256 120.02 78.6703 120.503 76.2721 122.198 74.8613 122.805 74.3564 124.324 73.0917 126.752 71.0696L126.752 66.4141 131.14 66.4141 126.752 66.4141 133.133 36.5706 134.375 36.9319 137.89 22.968 140.182 22.968 136.288 37.3577 137.244 37.7834 130.861 66.4141 131.724 66.4141 134.209 64.8623 136.697 60.6548 138.919 29.7941 144.154 26.0716 145.515 22.968C145.154 22.5547 144.929 22.2997 144.839 22.1958 144.443 21.7453 143.78 21.6488 143.273 21.9656 143.057 22.0993 142.523 22.4334 141.669 22.968L136.697 22.968 131.348 26.0716 103.571 53.2942 102.569 52.3636 94.4361 59.9594 94.4361 57.4794 101.267 51.1682 100.386 50.4405 128.203 23.1215 131.539 25.9529 125.735 20.993 118.152 24.4778 113.781 28.6085 111.026 32.9225C110.395 34.1129 109.999 34.8579 109.84 35.1549 109.308 36.1622 108.388 36.9097 107.294 37.2265 106.314 37.5111 104.794 37.9516 103.74 38.2586 102.863 38.511 101.93 38.4813 101.072 38.1719 100.683 38.0308 99.7153 37.6819 98.1659 37.12L94.4361 35.3801 94.4361 66.4141 89.1866 66.4141 87.9145 71.2998C89.2089 71.3617 90.0182 71.4013 90.3424 71.4161 91.4141 71.4656 92.4784 71.6067 93.5253 71.8344 96.3839 72.4581 103.717 74.0545 106.66 74.6955 107.43 74.8613 108.182 75.094 108.91 75.3885 109.583 75.6608 109.514 75.6335 109.937 75.8043 111.469 76.4255 112.825 77.4106 113.89 78.6753 114.308 79.1728 113.885 78.6703 114.291 79.1505 115.412 80.482 116.256 82.024 116.778 83.6847 116.892 84.0485 116.748 83.5882 116.936 84.1945 117.209 85.0559 117.303 85.9617 117.218 86.8601 117.137 87.7363 117.038 88.8129 116.959 89.642 116.862 90.6939 116.518 91.7087 115.956 92.6046 115.506 93.3248 114.461 94.993 113.875 95.931 113.761 96.1142 113.605 96.2676 113.419 96.3815 113.058 96.6017 112.157 97.1561 110.712 98.0397L106.866 99 37.5977 99 37.2636 99Z" fill="#0F3C50" transform="matrix(1.0101 0 0 1 107.855 311.896)"/></g></svg>