<svg width="182" height="182" xmlns="http://www.w3.org/2000/svg" xmlns:xlink="http://www.w3.org/1999/xlink" xml:space="preserve" overflow="hidden"><g transform="translate(-506 -484)"><path d="M642.5 624.292C636.218 624.292 631.125 619.199 631.125 612.917 631.125 606.635 636.218 601.542 642.5 601.542 648.782 601.542 653.875 606.635 653.875 612.917 653.875 619.199 648.782 624.292 642.5 624.292M653.875 556.042 668.738 575 634.917 575 634.917 556.042M551.5 624.292C545.218 624.292 540.125 619.199 540.125 612.917 540.125 606.635 545.218 601.542 551.5 601.542 557.782 601.542 562.875 606.635 562.875 612.917 562.875 619.199 557.782 624.292 551.5 624.292M657.667 544.667 634.917 544.667 634.917 514.333 528.75 514.333C520.333 514.333 513.583 521.083 513.583 529.5L513.583 612.917 528.75 612.917C528.75 625.482 538.936 635.667 551.5 635.667 564.064 635.667 574.25 625.482 574.25 612.917L619.75 612.917C619.75 625.482 629.935 635.667 642.5 635.667 655.065 635.667 665.25 625.482 665.25 612.917L680.417 612.917 680.417 575Z" fill="#0F3C50"/></g></svg>