<svg width="280" height="281" xmlns="http://www.w3.org/2000/svg" xmlns:xlink="http://www.w3.org/1999/xlink" xml:space="preserve" overflow="hidden"><g transform="translate(-74 -136)"><path d="M43.7938 45.2047 32.9438 56.0547 105.492 132.727 105.492 164.773 148.148 164.773 148.148 136.938ZM29.9031 67.1562 29.9031 111.07 32.0961 112.547C37.8711 116.375 40.157 120.258 40.8078 123.375 41.4531 126.547 40.5727 129.281 38.7023 131.523 34.9508 136.062 27.8141 138.25 20.8031 131.195L13.8469 138.195C24.3359 148.641 39.0742 146.453 46.2602 137.867 49.8586 133.547 51.7125 127.531 50.4437 121.406 49.3227 115.938 45.675 110.633 39.7469 106.094L39.7469 77.5469ZM171.008 95.8672 171.008 174.617 69.8359 174.617C82.1953 177.789 92.0391 187.469 95.375 199.773L184.297 199.773C188.398 184.68 202.234 173.523 218.586 173.523 234.938 173.523 248.773 184.68 252.875 199.773L266.164 199.773 266.164 153.508 233.242 95.8672ZM190.695 103.523 224.656 103.523 254.57 153.836 190.695 153.836 190.695 108.445ZM14.8805 174.617 21.1695 199.773 26.775 199.773C30.1219 187.469 39.9492 177.789 52.3359 174.617ZM61.0859 183.367C46.8234 183.367 35.3719 194.797 35.3719 209.07 35.3719 223.344 46.8234 234.773 61.0859 234.773 75.3594 234.773 86.7891 223.344 86.7891 209.07 86.7891 194.797 75.3594 183.367 61.0859 183.367M218.586 183.367C204.312 183.367 192.883 194.797 192.883 209.07 192.883 223.344 204.312 234.773 218.586 234.773 232.859 234.773 244.289 223.344 244.289 209.07 244.289 194.797 232.859 183.367 218.586 183.367" fill="#0F3C50" transform="matrix(1 0 0 1.00357 74 136)"/></g></svg>