<svg width="202" height="203" xmlns="http://www.w3.org/2000/svg" xmlns:xlink="http://www.w3.org/1999/xlink" xml:space="preserve" overflow="hidden"><g transform="translate(-805 -246)"><path d="M151.5 33.6667 109.417 33.6667 109.417 109.417 8.41667 109.417 8.41667 143.083 25.25 143.083C25.25 150.069 27.775 155.961 32.7408 161.011 37.875 165.977 43.6825 168.333 50.5 168.333 57.3175 168.333 63.125 165.977 68.2592 161.011 73.225 155.961 75.75 150.069 75.75 143.083L122.042 143.083C122.042 150.069 124.398 155.961 129.448 161.011 134.414 165.977 140.306 168.333 147.292 168.333 154.025 168.333 159.917 165.977 164.883 161.011 169.933 155.961 172.542 150.069 172.542 143.083L193.583 143.083 193.583 84.1667ZM59.59 152.089C57.2333 154.614 54.2033 155.708 50.5 155.708 46.7967 155.708 43.7667 154.614 41.41 152.089 39.0533 149.564 37.875 146.618 37.875 143.083 37.875 139.801 39.0533 136.855 41.41 134.33 43.7667 131.805 46.7967 130.458 50.5 130.458 54.2033 130.458 57.2333 131.805 59.59 134.33 61.9467 136.855 63.125 139.801 63.125 143.083 63.125 146.618 61.9467 149.564 59.59 152.089M156.045 152.089C153.52 154.614 150.574 155.708 147.292 155.708 143.757 155.708 140.811 154.614 138.286 152.089 135.761 149.564 134.667 146.618 134.667 143.083 134.667 139.801 135.761 136.855 138.286 134.33 140.811 131.805 143.757 130.458 147.292 130.458 150.574 130.458 153.52 131.805 156.045 134.33 158.57 136.855 159.917 139.801 159.917 143.083 159.917 146.618 158.57 149.564 156.045 152.089M126.25 84.1667 126.25 50.5 143.588 50.5 171.616 84.1667Z" fill="#0F3C50" transform="matrix(1 0 0 1.00495 805 246)"/></g></svg>