<svg width="202" height="78" xmlns="http://www.w3.org/2000/svg" xmlns:xlink="http://www.w3.org/1999/xlink" xml:space="preserve" overflow="hidden"><defs><clipPath id="clip0"><rect x="1042" y="312" width="202" height="78"/></clipPath></defs><g clip-path="url(#clip0)" transform="translate(-1042 -312)"><path d="M60.5442 65.0845C60.5442 72.2117 54.509 78 47.073 78 39.637 78 33.6017 72.2117 33.6017 65.0845 33.6017 57.9572 39.637 52.169 47.073 52.169 54.509 52.169 60.5442 57.9572 60.5442 65.0845Z" fill="#0F3C50" transform="matrix(1.00248 0 0 1 1042.33 312)"/><path d="M91.4225 65.0845C91.4225 72.2117 85.3873 78 77.9512 78 70.5153 78 64.48 72.2117 64.48 65.0845 64.48 57.9572 70.5153 52.169 77.9512 52.169 85.3873 52.169 91.4225 57.9572 91.4225 65.0845Z" fill="#0F3C50" transform="matrix(1.00248 0 0 1 1042.33 312)"/><path d="M200.2 65.0845C200.2 72.2117 194.165 78 186.729 78 179.293 78 173.257 72.2117 173.257 65.0845 173.257 57.9572 179.293 52.169 186.729 52.169 194.165 52.169 200.2 57.9572 200.2 65.0845Z" fill="#0F3C50" transform="matrix(1.00248 0 0 1 1042.33 312)"/><path d="M58.838 68.0518 65.286 68.0518 89.9958 64.3435 90.272 61.945 91.5525 61.945C91.702 63.3067 91.7995 64.1582 91.8353 64.4995 91.8612 64.7172 92.0822 64.8603 92.2902 64.792 92.3845 64.7595 92.6185 64.6847 92.9922 64.5612L93.6162 62.816 97.682 61.945 103.672 61.945 103.672 56.7093 107.666 50.6025 109.772 48.5257 122.753 38.6165 125.083 37.8495 124.93 41.0052C123.464 41.0865 122.548 41.1353 122.184 41.1547 121.826 41.1742 121.517 41.4147 121.413 41.7593 121.368 41.8957 121.459 41.6097 121.426 41.717 121.28 42.1882 121.306 42.6985 121.501 43.1502 121.544 43.2445 121.462 43.0527 121.527 43.2055 121.634 43.459 121.885 43.6215 122.161 43.6215 122.528 43.6215 123.451 43.6215 124.93 43.6215L124.93 44.4958 125.736 44.4958 125.736 46.241 129.766 46.241 129.766 47.4305C128.29 47.4695 127.367 47.4955 126.997 47.5052 126.158 47.528 125.32 47.6125 124.494 47.7555 124.234 47.801 124.335 47.7847 123.984 47.8465 123.467 47.9375 122.98 48.152 122.564 48.4737 122.424 48.5843 122.34 48.6493 122.128 48.815 121.956 48.945 121.829 49.127 121.761 49.3317 121.703 49.517 121.55 49.9785 121.31 50.713 120.958 50.6805 120.737 50.661 120.65 50.6545 120.289 50.6187 119.928 50.7065 119.626 50.9048 119.538 50.9567 119.324 51.0965 118.979 51.3175 115.274 50.2677 112.96 49.6112 112.034 49.3512 111.67 49.2472 111.28 49.3642 111.036 49.6535 110.474 50.3132 109.392 51.584 108.881 52.1852 108.452 52.6857 108.192 53.313 108.144 53.9728 108.114 54.3465 108.085 54.7397 108.053 55.185 108.02 55.6172 108.053 56.0527 108.15 56.4753 108.283 57.044 108.534 58.136 108.667 58.7112 108.755 59.0915 109.041 59.397 109.411 59.514 110.513 59.8585 113.269 60.723 117.676 62.101L119.064 63.102C119.837 64.1582 120.812 64.6425 121.989 64.5612 122.782 64.506 123.493 64.2135 124.124 63.6902L133.49 66.5502C133.741 67.0573 133.897 67.3725 133.958 67.4992 134.199 67.9932 134.605 68.3897 135.102 68.6237 135.418 68.77 135.73 68.9163 136.081 69.0788 136.477 69.264 136.913 69.3452 137.348 69.3128 137.589 69.2933 138.19 69.251 139.149 69.1795 148.249 72.2832 153.936 74.2235 156.211 75.0003 156.796 75.1985 157.433 75.166 157.992 74.9027 158.311 74.7532 158.538 74.6492 158.892 74.4835 159.162 74.3567 159.156 73.9732 158.883 73.8595 158.33 73.6222 157.68 73.346 157.202 73.1413 156.523 72.852 156.026 72.2572 155.863 71.539 155.782 71.175 155.802 71.253 155.721 70.8955 155.548 70.1285 155.577 69.3322 155.808 68.5782 155.883 68.3377 156.068 67.7365 156.364 66.7712L157.342 63.9242 142.811 58.8867 143.033 57.135 151.528 54.964 151.528 53.2187 171.678 52.3478 171.678 54.093C171.223 54.86 170.94 55.3377 170.826 55.5295 170.258 56.4947 170.352 57.7103 171.061 58.5747 171.145 58.6755 171.35 58.9257 171.678 59.3255 171.288 61.4445 171.041 62.7673 170.943 63.297 170.908 63.5017 171.064 63.6902 171.272 63.6902 171.548 63.6902 171.983 63.6902 172.26 63.6902 172.481 63.6902 172.663 63.518 172.676 63.3002 172.692 63.0305 172.708 62.7802 172.725 62.5527 172.75 62.1497 172.822 61.7467 172.942 61.36 172.984 61.217 172.906 61.477 172.942 61.36 173.072 60.9277 173.459 60.6287 173.911 60.6092 179.426 60.3525 195.029 59.6245 200.496 59.371 201.058 59.345 201.5 58.8835 201.5 58.3212 201.5 53.8785 201.5 41.7462 201.5 37.3522 201.5 36.6698 200.944 36.114 200.262 36.114 200.057 36.114 199.543 36.114 198.721 36.114L178.932 30.537C178.932 29.276 178.932 28.4895 178.932 28.1775 178.932 27.664 178.532 27.2447 178.022 27.2155 177.398 27.183 176.387 27.1277 175.75 27.092 175.289 27.066 174.902 27.4333 174.902 27.8947 174.902 28.132 174.902 28.7202 174.902 29.6627L142.662 27.0465C143.075 21.2387 143.331 17.6085 143.436 16.1557 143.452 15.912 143.26 15.704 143.013 15.704 142.922 15.704 142.688 15.704 142.317 15.704 142.538 13.3185 142.675 11.83 142.73 11.232 142.769 10.8225 142.447 10.4682 142.035 10.4682 141.924 10.4682 141.648 10.4682 141.203 10.4682L141.05 9.59725 139.659 9.48675 139.373 10.4682C138.996 10.4682 138.759 10.4682 138.664 10.4682 138.187 10.4682 137.79 10.829 137.742 11.3035 137.537 13.286 137.026 18.2423 136.214 26.1722L123.318 25.168 114.452 25.3012 112.84 25.987 111.228 38.5222 109.616 38.6327 112.84 10.0588 107.198 6.981 99.944 6.981C99.944 6.35375 99.944 5.96375 99.944 5.80775 99.944 5.4405 99.8042 5.083 99.554 4.81325 99.4727 4.72225 99.775 5.05375 99.736 5.00825 99.3557 4.5955 98.8195 4.3615 98.2572 4.3615 97.9518 4.3615 97.812 4.3615 97.4805 4.3615 96.993 4.3615 96.5185 4.54675 96.1577 4.87825 96.109 4.92375 96.4437 4.61825 96.3722 4.68 96.0798 4.94975 95.914 5.33 95.914 5.7265 95.914 5.8955 95.914 6.3115 95.914 6.981L78.182 6.981 78.182 0 76.57 0 76.57 6.981 75.764 6.981 75.764 11.3425 74.7663 11.3425 74.958 13.9587 78.988 34.8985 77.376 34.8985 77.376 39.26 74.152 39.26 74.152 21.8107 72.54 21.8107C72.4522 21.372 72.397 21.0958 72.3742 20.9885 72.2572 20.4067 71.877 19.9128 71.3472 19.6462 71.1652 19.5552 71.175 19.5617 70.9215 19.435 70.6062 19.2757 70.2552 19.1945 69.901 19.1945 69.693 19.1945 69.758 19.1945 69.589 19.1945 69.108 19.1945 68.6367 19.305 68.2045 19.5195 67.9867 19.63 68.1232 19.5617 67.9412 19.6528 67.4245 19.9095 67.0702 20.41 66.9987 20.9852 66.9857 21.0958 66.9532 21.372 66.898 21.8107L65.286 21.8107 64.48 8.723 60.45 6.981 60.45 10.4682 62.062 11.3425 62.062 21.8107 56.628 21.8107 56.42 20.0655C57.044 20.0167 57.4308 19.9875 57.5868 19.9745 58.1652 19.9322 58.6073 19.4512 58.6073 18.8727 58.6073 18.4112 58.6073 17.9107 58.6073 17.4167 58.6073 16.8935 58.3407 16.406 57.8987 16.1297 57.7655 16.0452 57.8435 16.094 57.6517 15.9738 57.3755 15.7982 57.0505 15.704 56.7222 15.704 56.017 15.704 54.5642 15.704 53.9012 15.704 53.4397 15.704 52.9815 15.8177 52.5752 16.0387 52.377 16.146 52.572 16.042 52.416 16.1265 51.9025 16.4028 51.584 16.939 51.584 17.524 51.584 18.031 51.584 18.551 51.584 19.045 51.584 19.6073 52.0422 20.0655 52.6045 20.0655 52.754 20.0655 53.1245 20.0655 53.716 20.0655L53.716 21.8107 51.3857 22.1455C38.4507 23.7413 30.3647 24.7358 27.131 25.1355 26.286 25.2395 25.532 25.7237 25.0835 26.4517 24.5797 27.2675 23.7217 28.665 23.2017 29.5068 22.789 30.1795 22.568 30.953 22.568 31.746 22.568 33.9105 22.568 39.325 22.568 47.9862L24.18 52.3478 19.344 52.3478 16.926 43.6215C16.4742 43.1177 16.1915 42.8058 16.081 42.679 15.6325 42.1817 14.9597 41.951 14.3032 42.0745 14.0985 42.1135 14.1213 42.107 13.8092 42.1655 13.468 42.2305 13.156 42.406 12.922 42.666 12.7042 42.9097 12.1582 43.5175 11.284 44.4958 10.6698 44.616 10.2862 44.6907 10.1335 44.72 9.83125 44.7785 9.55175 44.9183 9.321 45.123 9.0675 45.344 8.84 45.5487 8.632 45.7308 8.25825 46.0655 7.9755 46.488 7.813 46.9657 7.6895 47.333 7.37425 48.256 6.87375 49.7282L6.448 52.3478C5.77525 53.4397 5.356 54.1222 5.187 54.3952 4.95625 54.7657 4.836 55.1947 4.836 55.6335 4.836 56.2412 4.836 57.7622 4.836 60.1997 3.796 60.4792 3.146 60.6548 2.886 60.7262 2.07025 60.9472 1.378 61.4867 0.96525 62.2245 0.7735 62.5657 0.598 62.8745 0.3445 63.3262 0.12025 63.7292 0 64.1842 0 64.649 0 64.87 0 65.4225 0 66.3065L0.806 66.3065 0.975 69.797 8.866 74.1585 8.06 71.5423C6.5845 70.4405 5.6615 69.7547 5.29425 69.4785 4.99525 69.2575 4.7775 68.9487 4.66375 68.5945 4.60525 68.4092 4.52725 68.1557 4.44925 67.9087 4.39725 67.743 4.39725 67.5675 4.446 67.405 4.524 67.1385 4.58575 66.924 4.641 66.7387 4.7645 66.3227 5.07325 65.9815 5.4795 65.819 5.60625 65.7702 5.93125 65.6403 6.448 65.4323L8.06 65.4323 8.866 64.4118 8.29075 62.816 9.204 61.6427 10.6177 62.1367 11.9502 61.945C15.3205 63.3035 17.4265 64.155 18.2682 64.493 18.98 64.779 19.7372 64.935 20.501 64.9447 20.7773 64.9512 21.4662 64.961 22.568 64.9805 22.971 65.377 23.2212 65.624 23.322 65.7215 23.7055 66.1017 24.206 66.3357 24.739 66.391 24.8787 66.404 25.2297 66.4397 25.792 66.4982 26.1722 66.3195 26.4095 66.209 26.5037 66.1635 27.053 65.9035 27.404 65.351 27.404 64.7432 27.404 64.6392 27.404 64.3792 27.404 63.9665L29.822 60.1997 32.5715 60.1997C32.1068 61.7825 31.8142 62.7737 31.7005 63.1702 31.5835 63.5667 31.9442 63.9372 32.344 63.8332 32.4187 63.8138 32.6007 63.765 32.8965 63.6902L33.2118 61.945 33.9625 62.101 58.838 68.0518Z" fill="#0F3C50" transform="matrix(1.00248 0 0 1 1042.33 312)"/></g></svg>