<svg width="198" height="197" xmlns="http://www.w3.org/2000/svg" xmlns:xlink="http://www.w3.org/1999/xlink" xml:space="preserve" overflow="hidden"><g transform="translate(-734 -41)"><path d="M139.542 65.6667 164.167 65.6667 188.792 98.9597 188.792 147.75 172.088 147.75C169.817 163.458 155.243 174.352 139.535 172.081 126.929 170.26 117.026 160.356 115.204 147.75L73.5877 147.75C71.3495 163.458 56.8011 174.377 41.093 172.139 28.4447 170.337 18.5063 160.398 16.704 147.75L8.20833 147.75 8.20833 49.25C8.20833 44.7167 11.8834 41.0417 16.4167 41.0417L131.333 41.0417C135.867 41.0417 139.542 44.7167 139.542 49.25ZM139.542 82.0833 139.542 106.708 172.375 106.708 172.375 104.369 155.893 82.0833Z" fill="#0F3C50" transform="matrix(1.00508 0 0 1 734 41)"/></g></svg>