<svg width="152" height="152" xmlns="http://www.w3.org/2000/svg" xmlns:xlink="http://www.w3.org/1999/xlink" xml:space="preserve" overflow="hidden"><g transform="translate(-310 -501)"><path d="M337.099 519.957C337.099 518.73 338.098 517.731 339.325 517.731L432.686 517.731C433.913 517.731 434.911 518.73 434.911 519.957L434.911 566.143 337.099 566.143ZM451.186 618.485C451.186 627.193 445.182 634.489 437.083 636.475L437.083 642.045C437.083 648.042 432.222 652.902 426.226 652.902 420.229 652.902 415.369 648.042 415.369 642.045L415.369 636.997 356.631 636.997 356.631 642.045C356.631 648.042 351.77 652.902 345.774 652.902 339.778 652.902 334.917 648.042 334.917 642.045L334.917 636.475C326.631 634.44 320.807 627.007 320.814 618.474L320.814 519.957C320.814 509.729 329.109 501.445 339.325 501.445L432.686 501.445C442.913 501.445 451.197 509.729 451.197 519.957ZM353.429 609.571C359.425 609.571 364.286 604.711 364.286 598.714 364.286 592.718 359.425 587.857 353.429 587.857 347.432 587.857 342.571 592.718 342.571 598.714 342.571 604.711 347.432 609.571 353.429 609.571M418.571 609.571C424.568 609.571 429.429 604.711 429.429 598.714 429.429 592.718 424.568 587.857 418.571 587.857 412.575 587.857 407.714 592.718 407.714 598.714 407.714 604.711 412.575 609.571 418.571 609.571" fill="#0F3C50" fill-rule="evenodd"/></g></svg>