<svg width="220" height="100" xmlns="http://www.w3.org/2000/svg" xmlns:xlink="http://www.w3.org/1999/xlink" xml:space="preserve" overflow="hidden"><defs><clipPath id="clip0"><rect x="1060" y="149" width="220" height="100"/></clipPath></defs><g clip-path="url(#clip0)" transform="translate(-1060 -149)"><path d="M177.499 31.6697 175.244 38.4759 174.481 57.7122 173.522 57.7122 173.522 62.9613 174.223 62.9991 174.212 67.2994 171.442 68.2069 170.926 66.4572 169.276 66.4572 166.636 55.5981C167.654 54.945 168.286 54.5359 168.541 54.3744 168.685 54.2816 168.747 54.1028 168.692 53.9412 168.568 53.5769 168.358 52.965 168.248 52.6522 168.149 52.3566 167.836 52.1847 167.53 52.2569 167.413 52.2844 167.114 52.3531 166.636 52.4666L155.33 8.745 153.835 8.745 152.866 6.99531 149.425 6.69969 147.702 8.745 152.866 29.7309 135.654 27.9813 135.654 9.71438 137.373 8.745 137.373 3.81563 130.488 6.99531 130.488 27.1494 121.883 26.235 121.883 20.9859C122.468 20.7006 122.836 20.5219 122.983 20.4497 123.241 20.3225 123.245 19.9547 122.99 19.8206 122.842 19.745 122.475 19.5491 121.883 19.2362L116.717 19.2362C116.222 19.5147 115.913 19.6866 115.789 19.7553 115.462 19.9375 115.479 20.4188 115.823 20.5769 115.94 20.6319 116.239 20.7694 116.717 20.9859L116.717 25.5372C112.822 25.0628 110.388 24.7638 109.416 24.6434 108.721 24.5609 108.109 25.1006 108.109 25.7984 108.109 27.0222 108.109 30.0816 108.109 34.9766L101.224 34.9766 101.224 10.4947C103.269 10.4947 104.545 10.4947 105.057 10.4947 105.793 10.4947 106.391 9.89656 106.391 9.16094 106.391 9.10594 106.391 8.965 106.391 8.745 105.504 7.84437 104.95 7.28063 104.727 7.05719 104.689 7.01594 104.637 6.99531 104.582 6.99531 102.881 6.99531 98.5634 6.99531 97.0338 6.99531 96.4975 6.99531 96.0609 7.43188 96.0609 7.96813 96.0609 8.07125 96.0609 8.3325 96.0609 8.745L87.4534 8.745 87.4534 3.49938 87.4534 1.04844 86.0922 0C85.3291 0 84.8512 0 84.6622 0 84.3013 0 84.0125 0.292188 84.0125 0.649687 84.0125 1.02781 84.0125 1.98 84.0125 3.49938L77.1272 3.49938 77.1272 1.74969C75.7247 1.74969 74.8447 1.74969 74.4941 1.74969 74.0472 1.74969 73.6828 2.11063 73.6828 2.56094 73.6828 2.68469 73.6828 2.9975 73.6828 3.49938 72.6997 3.49938 72.0878 3.49938 71.8403 3.49938 70.9569 3.49938 70.2419 4.21438 70.2419 5.09781 70.2419 5.35219 70.2419 5.98469 70.2419 6.99531L56.4712 6.99531 56.4712 8.745 59.9122 8.745 59.9122 24.4853C57.2378 24.4853 55.5638 24.4853 54.8934 24.4853 53.8622 24.4853 53.0269 25.3206 53.0269 26.3519 53.0269 27.5034 53.0269 30.3772 53.0269 34.9766 51.8822 34.9766 51.1672 34.9766 50.8819 34.9766 50.1669 34.9766 49.5859 35.5609 49.5859 36.2759 49.5859 38.115 49.5859 42.3328 49.5859 44.1719 49.5859 44.8903 50.1669 45.4712 50.8819 45.4712 51.8581 45.4712 54.2919 45.4712 58.19 45.4712L58.19 50.4006C44.5603 46.4716 36.0387 44.0206 32.6322 43.0375 32.0444 42.8691 31.4291 43.2059 31.2572 43.7938 31.2366 43.8625 31.1884 44.0309 31.1094 44.3059L28.9266 43.7216 28.9266 46.7603 30.6488 47.2209C30.6488 47.3928 30.6488 47.4994 30.6488 47.5406 30.6488 48.2522 31.1128 48.8744 31.7934 49.0806 34.8528 49.9984 42.5047 52.2912 54.7491 55.9659L44.9762 57.2069 44.4194 58.4134 40.9784 58.3928 40.9784 66.4572 37.5341 66.7459 37.5341 62.9613 40.9784 61.8956 40.9784 60.3797 37.5341 61.2116 36.3688 59.4619 34.0931 59.4619 32.6012 61.2116 30.1572 64.7109 28.9266 65.9209 27.2078 66.4572 23.7634 66.4572 20.3225 61.2116 23.7634 59.4619 23.7634 57.7122 20.3225 57.7122 20.3225 55.9659 22.0413 48.9706 27.2078 48.9706 28.9266 47.2209 28.9266 43.7216 27.2078 42.2881 23.7634 41.6763 23.7634 38.7372 25.4856 37.1937 25.4856 34.9766 23.7634 33.6944 22.3506 34.9388 20.3225 36.7262 16.8781 34.9766 15.1559 40.2256 1.38531 55.9659C0.81125 57.7156 0.45375 58.8122 0.309375 59.2487-0.11 60.5241-0.11 61.8991 0.309375 63.1744 0.5225 63.8309 0.395312 63.4356 0.5775 63.9925 1.08625 65.5428 2.29625 66.7666 3.84656 67.2925 4.2075 67.4128 5.10812 67.7188 6.55187 68.2069 5.5825 70.5959 4.9775 72.0878 4.73344 72.6859 4.30375 73.7447 4.02531 74.8584 3.90844 75.9963 3.86375 76.4294 3.8775 76.2747 3.82594 76.7731 3.72969 77.6909 3.79156 78.6122 4.00469 79.5059 4.16969 80.1934 4.14219 80.0731 4.25563 80.5509 4.63031 82.1047 5.44156 83.5175 6.59656 84.6175 6.82 84.8341 7.37687 85.3669 8.27063 86.2194L9.99281 89.1928C15.9741 92.7678 19.7141 94.9987 21.2094 95.8925 21.5978 96.1228 22.0172 95.6484 21.7388 95.2909 20.7453 94.0122 18.2531 90.8119 14.2691 85.6969L14.6953 78.7016 15.1559 75.2022 13.4372 73.4525 13.4372 72.0156 18.6003 73.4525C18.6003 73.9028 18.6003 74.1813 18.6003 74.2947 18.6003 74.7416 19.0369 75.0544 19.4597 74.91 20.0337 74.7175 21.4706 74.2328 23.7634 73.4525 24.4062 75.4153 24.8084 76.6391 24.97 77.1306 25.2828 78.0863 26.1284 78.7703 27.1287 78.8769 29.0675 79.0866 33.9109 79.6125 41.6659 80.4512L40.9784 85.6969C40.9784 86.4531 40.9784 86.9275 40.9784 87.12 40.9784 88.495 41.195 89.8597 41.6247 91.1659 41.8413 91.8225 41.7897 91.6678 41.9925 92.2866 42.4566 93.7028 43.2438 94.9953 44.2887 96.0575 44.66 96.4322 44.5259 96.2947 44.9831 96.7588 45.7428 97.5356 46.6778 98.12 47.7091 98.4706 48.4275 98.7113 49.1047 98.9416 49.8438 99.1925 50.8131 99.5191 51.8272 99.6875 52.8481 99.6875 53.1025 99.6875 53.735 99.6875 54.7491 99.6875 102.64 99.6875 132.571 99.6875 144.543 99.6875 145.492 99.6875 146.434 99.5088 147.318 99.1616 147.74 98.9931 147.534 99.0756 147.923 98.9209 148.899 98.5359 149.727 97.8519 150.288 96.965 150.401 96.7828 150.686 96.3325 151.147 95.6072L166.636 97.1231 174.185 97.1128 175.244 95.6622 176.712 95.5522C176.712 95.5522 176.712 95.5522 176.712 95.5522 177.282 96.3222 178.207 96.7484 179.163 96.6797 179.413 96.6625 178.685 96.7141 178.949 96.6969 179.888 96.6316 180.764 96.2088 181.404 95.5213 181.5 95.4147 181.741 95.1534 182.129 94.7375L183.851 94.4419C183.851 95.6725 183.851 96.4425 183.851 96.7519 183.851 97.5116 184.147 98.2437 184.68 98.7903 184.852 98.9691 184.745 98.8591 184.968 99.0894 185.34 99.4709 185.852 99.6875 186.385 99.6875 193.108 99.6875 212.462 99.6875 219.189 99.6875 219.636 99.6875 220 99.3231 220 98.8763 220 98.6872 220 98.8625 220 98.6562 220 98.2094 219.773 97.7934 219.395 97.5528 218.378 96.9031 215.837 95.2841 211.771 92.6922L201.066 61.2116 195.9 58.9497 194.607 53.4875C191.3 48.6888 189.231 45.6912 188.406 44.4916 187.688 43.4534 186.622 42.7041 185.398 42.3809 185.192 42.3259 184.676 42.1919 183.851 41.9753L180.115 31.4806 177.423 31.4806" stroke="#216499" stroke-width="0.34375" fill="#0F3C50" transform="matrix(1 0 0 1.00313 1060 149)"/></g></svg>