<svg width="178" height="178" xmlns="http://www.w3.org/2000/svg" xmlns:xlink="http://www.w3.org/1999/xlink" xml:space="preserve" overflow="hidden"><g transform="translate(-89 -488)"><path d="M244.75 532.656C244.772 531.573 244.698 521.79 235.108 512.371 225.667 503.1 216.144 502.833 215.083 502.833L140.887 502.833C139.114 502.833 129.814 503.301 120.803 512.49 111.517 521.953 111.25 531.454 111.25 532.5L111.25 554.75 103.833 554.75 103.833 577 111.25 577 111.25 621.5C111.25 626.944 114.261 631.683 118.667 634.264L118.667 643.75C118.667 647.846 121.987 651.167 126.083 651.167L133.5 651.167C137.596 651.167 140.917 647.846 140.917 643.75L140.917 636.333 215.083 636.333 215.083 643.75C215.083 647.846 218.404 651.167 222.5 651.167L229.917 651.167C234.013 651.167 237.333 647.846 237.333 643.75L237.333 634.279C241.913 631.653 244.741 626.78 244.75 621.5L244.75 577 252.167 577 252.167 554.75 244.75 554.75ZM155.75 517.667 200.25 517.667 200.25 532.5 155.75 532.5ZM137.208 621.5C131.062 621.498 126.081 616.514 126.083 610.368 126.085 604.221 131.07 599.24 137.216 599.243 143.362 599.245 148.343 604.229 148.341 610.375 148.339 616.521 143.355 621.502 137.208 621.5M170.583 584.417 126.083 584.417 126.083 547.333 170.583 547.333ZM218.792 621.5C212.645 621.498 207.664 616.514 207.667 610.368 207.669 604.221 212.653 599.24 218.799 599.243 224.945 599.245 229.926 604.229 229.924 610.375 229.922 616.521 224.938 621.502 218.792 621.5M229.917 584.417 185.417 584.417 185.417 547.333 229.917 547.333Z" fill="#0F3C50"/></g></svg>