<svg width="148" height="190" xmlns="http://www.w3.org/2000/svg" xmlns:xlink="http://www.w3.org/1999/xlink" xml:space="preserve" overflow="hidden"><g transform="translate(-532 -75)"><path d="M142.139 152.44 133.348 152.44 133.348 153.92 131.88 153.92 130.657 148 124.876 146.52 124.876 145.262 126.031 145.262 126.031 143.56 124.628 142.08 123.903 139.12 121.407 139.12 120.25 140.6 115.626 145.04C89.0694 145.04 72.4697 145.04 65.8304 145.04 65.1674 145.04 64.5576 145.41 64.2498 145.999 64.01 146.464 63.4032 147.624 62.4382 149.48 60.461 149.48 59.2237 149.48 58.7294 149.48 58.1492 149.48 57.6016 149.743 57.2405 150.196 57.1458 150.315 56.909 150.611 56.5301 151.087L53.9075 154.45 48.3575 162.8 48.5618 161.32 43.9382 161.32 43.9382 154.734 48.8578 163.59 50.9653 160.195 43.959 146.52 43.959 143.56 41.0286 140.6 41.0286 130.24 48.1799 147.467 47.949 148.503 52.5134 158.064 54.615 153.92 50.8202 146.757 49.8227 146.52 42.4938 128.76 42.4938 125.8 41.0286 125.8 40.7562 124.32 39.5634 124.32 39.4894 108.04 117.938 142.08 117.938 142.08 117.938 143.56 115.626 151.33 120.25 140.6 39.5634 105.234 39.5634 2.96 41.0286 2.96 41.0286 1.48 39.5634 1.48C39.5634 1.48 39.5634 1.48 39.5634 1.48 39.5634 0.66304 38.9003 0 38.0834 0 36.3281 0 32.7613 0 31.0593 0 30.0914 0 29.307 0.7844 29.307 1.75232 29.307 3.4928 29.307 7.84104 29.307 14.8 28.5078 14.8 28.0105 14.8 27.8092 14.8 27.0189 14.8 26.3766 15.4423 26.3766 16.2356 26.3766 25.1215 26.3766 47.3363 26.3766 82.88L28.2266 88.8 27.75 122.84 9.25 124.32 9.25 127.28 27.9187 127.28 27.75 158.36 21.9691 158.36C21.9691 154.166 21.9691 151.543 21.9691 150.495 21.9691 149.936 21.5133 149.48 20.9538 149.48 19.7018 149.48 16.5701 149.48 11.5618 149.48L11.5618 148 9.25 148 9.25 149.48C6.61856 149.48 4.97576 149.48 4.31568 149.48 3.8184 149.48 3.38032 149.817 3.256 150.3 2.82088 151.966 1.73456 156.134 0 162.8L2.9304 170.2 2.9304 173.16 4.3956 174.64 31.2191 174.64 31.2191 187.664 30.0618 187.664 30.0618 189.144 37 189.144 37 187.664 35.8426 187.664 35.8426 174.566 48.5618 174.64 49.7191 176.12C47.1587 176.644 45.5603 176.972 44.921 177.103 44.921 177.103 43.4143 177.505 43.4143 177.505 42.9378 177.662 42.5559 177.786 42.1563 177.92 41.4104 178.165 40.7118 178.535 40.0902 179.018 39.6936 179.326 39.9038 179.163 39.6196 179.382 38.6398 180.143 37.959 181.229 37.7074 182.443 37.663 182.659 37.7726 182.126 37.6926 182.517 37.5535 183.18 37.5535 183.86 37.6926 184.523 37.7726 184.914 37.6838 184.476 37.7311 184.716 37.9679 185.852 38.6162 186.859 39.5515 187.549 39.8475 187.765 39.4864 187.501 39.8327 187.756 40.6201 188.336 41.5258 188.738 42.4849 188.937 42.6832 188.978 43.1746 189.079 43.959 189.242L98.1773 189.44C99.3968 189.111 100.16 188.907 100.465 188.824 100.892 188.709 101.291 188.516 101.643 188.253 102.123 187.898 102.304 187.765 102.602 187.543 103.529 186.859 104.162 185.855 104.387 184.728 104.435 184.485 104.236 185.491 104.284 185.246 104.509 184.106 104.509 182.934 104.284 181.794 104.236 181.549 104.376 182.253 104.313 181.939 104.136 181.048 103.653 180.246 102.949 179.675 102.582 179.376 102.611 179.4 102.253 179.11 101.495 178.497 100.634 178.023 99.7106 177.715 99.5063 177.644 98.9942 177.476 98.1773 177.203L92.5 176.12 93.6574 174.64 119.093 174.566 119.093 177.6 122.562 177.6 122.562 175.824 124.554 174.64 124.554 187.96 123.089 187.96 123.089 189.44 129.5 189.44 129.5 187.96 128.343 188.034 128.343 175.084 131.88 175.034C133.913 175.019 135.183 175.01 135.692 175.007 136.471 175.001 137.246 174.939 138.016 174.821 138.256 174.785 137.394 174.915 137.528 174.895 138.64 174.726 139.721 174.382 140.724 173.873 141.008 173.731 140.591 173.941 140.937 173.767 141.716 173.373 142.349 172.737 142.737 171.952 142.909 171.603 142.562 172.302 142.669 172.086 143.276 170.863 143.453 169.475 143.175 168.14 143.149 168.016 143.335 168.904 143.267 168.578 143.122 167.879 142.882 167.204 142.557 166.571 142.5 166.462 142.361 166.192 142.139 165.76L143.604 165.76 143.604 167.24 145.07 167.24 145.07 164.28 146.535 164.28 146.535 161.64 148 161.32 148 159.84 142.139 159.84 142.139 152.44" fill="#0F3C50" transform="matrix(-1 0 0 1.00296 680 75)"/></g></svg>